<svg xmlns="http://www.w3.org/2000/svg" width="300" height="250" viewBox="0 0 300 250">
  <!-- Background Rectangle -->
  <rect width="300" height="250" fill="#f0f0f0"/>
  
  <!-- Project Icon -->
  <rect x="75" y="50" width="150" height="100" rx="5" ry="5" fill="#2ecc71"/>
  
  <!-- Calculator Icon -->
  <rect x="100" y="65" width="100" height="70" rx="3" ry="3" fill="#fff"/>
  
  <!-- Calculator Display -->
  <rect x="110" y="75" width="80" height="20" rx="2" ry="2" fill="#f0f0f0"/>
  <text x="180" y="90" font-family="Arial" font-size="12" text-anchor="end" fill="#333">123.45</text>
  
  <!-- Calculator Buttons -->
  <rect x="110" y="100" width="15" height="15" rx="2" ry="2" fill="#f0f0f0"/>
  <text x="117" y="112" font-family="Arial" font-size="10" text-anchor="middle" fill="#333">7</text>
  
  <rect x="130" y="100" width="15" height="15" rx="2" ry="2" fill="#f0f0f0"/>
  <text x="137" y="112" font-family="Arial" font-size="10" text-anchor="middle" fill="#333">8</text>
  
  <rect x="150" y="100" width="15" height="15" rx="2" ry="2" fill="#f0f0f0"/>
  <text x="157" y="112" font-family="Arial" font-size="10" text-anchor="middle" fill="#333">9</text>
  
  <rect x="170" y="100" width="15" height="15" rx="2" ry="2" fill="#2ecc71"/>
  <text x="177" y="112" font-family="Arial" font-size="10" text-anchor="middle" fill="#fff">/</text>
  
  <rect x="110" y="120" width="15" height="15" rx="2" ry="2" fill="#f0f0f0"/>
  <text x="117" y="132" font-family="Arial" font-size="10" text-anchor="middle" fill="#333">4</text>
  
  <rect x="130" y="120" width="15" height="15" rx="2" ry="2" fill="#f0f0f0"/>
  <text x="137" y="132" font-family="Arial" font-size="10" text-anchor="middle" fill="#333">5</text>
  
  <rect x="150" y="120" width="15" height="15" rx="2" ry="2" fill="#f0f0f0"/>
  <text x="157" y="132" font-family="Arial" font-size="10" text-anchor="middle" fill="#333">6</text>
  
  <rect x="170" y="120" width="15" height="15" rx="2" ry="2" fill="#2ecc71"/>
  <text x="177" y="132" font-family="Arial" font-size="10" text-anchor="middle" fill="#fff">*</text>
  
  <!-- Text -->
  <text x="150" y="170" font-family="Arial" font-size="18" text-anchor="middle" fill="#333">Calculator App</text>
  <text x="150" y="195" font-family="Arial" font-size="14" text-anchor="middle" fill="#555">HTML, CSS, JavaScript</text>
</svg>